<svg xmlns="http://www.w3.org/2000/svg" viewBox="0 0 420 454" role="img" aria-labelledby="title desc">
  <title id="title">Vivo Life Sciences</title>
  <desc id="desc">Vivo Life Sciences sponsor logo with colorful leaf mark and purple wordmark.</desc>
  <defs>
    <linearGradient id="bg" x1="0" y1="0" x2="1" y2="1">
      <stop offset="0" stop-color="#1d2b3d"/>
      <stop offset="1" stop-color="#0d1626"/>
    </linearGradient>
  </defs>
  <rect width="420" height="454" fill="url(#bg)"/>
  <circle cx="212" cy="72" r="31" fill="#e33432"/>
  <path d="M191 118 C134 111 105 158 128 211 C143 245 168 270 202 303 C219 252 224 188 191 118 Z" fill="#08b86a"/>
  <path d="M230 119 C288 111 319 158 296 212 C281 247 254 273 218 306 C202 253 197 188 230 119 Z" fill="#b52ca2"/>
  <path d="M207 214 C229 240 227 274 210 306 C190 279 184 248 207 214 Z" fill="#f4a33a"/>
  <text x="210" y="365" text-anchor="middle" font-family="Montserrat, Arial, sans-serif" font-size="70" font-weight="800" letter-spacing="2" fill="#b43aa6">VIVO</text>
  <text x="210" y="410" text-anchor="middle" font-family="Montserrat, Arial, sans-serif" font-size="29" font-weight="600" letter-spacing="2" fill="#ffffff">LIFE SCIENCES</text>
  <line x1="153" y1="427" x2="267" y2="427" stroke="#ffffff" stroke-opacity="0.22" stroke-width="2"/>
</svg>
